<svg width="119" height="120" viewBox="0 0 119 120" fill="none" xmlns="http://www.w3.org/2000/svg">
<path d="M10.3476 0.748426C10.7173 -0.338868 45.4547 -4.32611 39.5419 27.9335H41.3897C41.3897 27.9335 45.0852 40.6198 28.825 54.3936C27.7164 55.8434 29.9337 57.6558 29.9337 57.6558C29.9337 57.6558 25.4991 56.9308 25.8686 50.044C26.2382 43.1571 33.9987 34.4579 32.5205 33.3705H29.1946C29.1946 33.3705 40.281 17.7844 22.5427 6.91035C22.5427 6.91035 24.7587 9.80998 25.1282 16.3344C25.7852 27.9335 13.3044 34.8202 13.3038 48.2315C13.3027 73.2417 52.1053 62.7302 52.1053 62.7302C52.1053 62.7302 51.7384 67.8047 29.9337 70.342C24.3891 77.2289 26.2369 85.5656 21.8023 89.5528C19.585 92.09 17.3677 92.815 12.194 96.0772C6.28124 100.789 5.91169 109.126 5.91169 109.126C5.91169 109.126 9.97673 115.288 12.194 115.288C14.4113 115.288 14.7809 113.113 18.8459 113.113C22.9109 113.113 24.3891 120 23.2805 120C22.1718 120 3.32485 120 3.32485 120C3.32485 120 1.47711 118.188 1.47711 111.301C1.47711 104.414 3.32485 97.1646 8.86925 93.1774C8.86925 93.1774 12.5636 92.4525 15.52 88.4654C17.7372 77.9538 20.6936 71.7919 20.6936 71.7919C20.6936 71.7919 12.5636 71.7919 8.86925 67.8047C5.17492 63.8176 4.4335 57.6558 4.4335 57.6558L8.86925 56.5682C8.86925 56.5682 -11.0866 48.2315 8.86925 26.4835V31.558C8.86925 31.558 29.9337 17.4218 10.3476 0.748426Z" fill="black"/>
<path d="M6.31592 110.163C6.31592 110.163 6.68292 104.643 15.1239 99.1238C15.1239 99.1238 20.6289 97.6523 27.9688 93.9728C30.9048 92.501 28.7028 88.4535 29.0698 88.0855C29.4368 87.7176 30.1708 88.4532 32.7398 89.5573C36.1812 89.5573 36.4098 77.047 36.4098 77.047C36.4098 77.047 54.7597 85.5099 67.9717 72.6316C60.914 91.029 62.4667 93.2366 62.4667 93.2366C62.4667 93.2366 64.3017 90.6609 65.0357 91.0289C65.7697 91.3968 74.2107 117.521 74.2107 117.521C74.2107 117.521 67.9717 114.946 62.4667 99.1238C62.4667 99.1238 60.2647 101.699 59.5307 101.332C58.7967 100.964 55.8607 93.9725 56.5947 88.4532C49.9887 89.5571 43.3828 87.7173 43.3828 87.7173C43.3828 87.7173 44.4838 88.0855 44.4838 92.501C44.4838 96.9164 41.5478 103.539 41.5478 105.379C41.5478 107.955 44.4838 114.578 46.3188 114.578C48.1538 114.578 47.4198 113.106 50.3557 113.106C53.2917 113.106 54.7597 117.89 54.0257 118.258C53.2917 118.625 44.8508 118.258 42.2818 118.258C39.7128 118.258 34.2078 106.483 34.2078 105.379C34.2078 104.275 32.7398 98.7561 30.5378 98.3882C23.5649 100.228 10.7199 104.275 9.25191 113.106C7.78391 121.937 9.25191 114.946 9.25191 114.946L6.31592 110.163Z" fill="black"/>
<path d="M110.31 53.1791C107.619 38.216 95.5625 25.0131 86.3453 20.6122C86.7139 19.8786 92.9816 20.979 93.3503 20.6122C93.3503 20.6122 90.4008 16.9448 80.0776 15.8445C78.6028 12.5439 71.229 3.00843 70.4917 3.37518C69.7543 3.74192 71.229 7.04262 70.8603 8.87635C70.4917 10.7101 68.2795 11.8103 68.2795 11.8103C68.2795 11.8103 59.7997 18.4117 60.9058 18.4117C62.0118 18.4117 66.4361 14.3775 66.4361 15.111C66.4361 15.8445 62.0118 19.5119 62.7492 19.5119C63.4866 19.5119 66.4361 18.045 66.4361 18.7785C66.4361 19.5119 48.0017 25.0131 50.5825 27.5803C52.0573 29.0473 53.1633 29.7807 53.9007 30.1475C54.6381 30.5144 57.9563 30.3306 58.6936 30.1477C59.431 29.9647 68.2795 25.0131 71.229 24.2796C74.1785 23.5461 81.1836 24.2796 81.1836 25.0131C81.1836 25.7466 72.3351 27.9804 74.1785 28.3138C78.2341 29.0473 83.7644 27.9471 90.0321 36.0155C90.0321 36.0155 91.8756 39.3162 91.8756 43.7171C91.5069 52.519 85.6079 57.2867 85.6079 57.2867C85.6079 57.2867 85.2392 58.0201 85.9766 50.3185C86.7139 42.6169 81.5523 40.0497 81.5523 40.0497C81.5523 40.0497 81.921 42.2501 81.921 44.0838C81.5523 59.8539 62.0118 59.4871 62.0118 59.4871C62.0118 59.4871 74.5472 51.7855 74.1785 42.9836C74.1785 41.5166 72.7038 33.4482 67.1735 33.0815C63.1179 31.9813 56.4815 33.0815 54.2694 33.0815C52.0573 33.0815 45.7896 26.8468 45.7896 25.0131C45.7896 23.1794 57.2189 20.2454 57.9563 19.5119C58.6936 18.7785 58.3249 15.8445 58.3249 15.111C58.3249 14.3775 62.7492 12.5438 63.1179 11.8103C63.4866 11.0768 64.5926 3.00843 65.33 3.00843C66.0674 3.00843 66.0674 7.77611 66.8048 9.97658C69.0169 9.60984 67.1735 0.807963 69.0169 0.0744735C70.8603 -0.659016 79.3402 4.10866 83.3957 10.7101C110.31 19.1453 112.891 29.0473 112.891 29.0473C112.891 29.0473 100.724 23.5461 100.355 23.9129C99.9867 24.2796 118.421 33.0816 118.421 59.4871C118.421 68.2891 116.946 72.6899 116.946 72.6899L111.047 64.2548C111.047 64.2548 112.071 68.6558 112.153 70.8563C112.522 80.7585 104.78 88.8267 104.042 88.8267C102.199 81.8587 97.7746 83.3255 97.7746 83.3255C97.7746 83.3255 99.9867 84.4258 99.9867 87.7265C99.9867 91.0272 95.5625 99.0955 95.9311 103.13C96.568 110.098 98.1433 110.831 98.8807 110.831C99.618 110.831 101.093 108.631 104.042 108.264C107.729 107.806 111.785 115.599 110.31 116.699C108.467 116.699 96.6685 116.699 94.4564 116.699C92.2443 116.699 89.2948 106.797 90.0321 105.33C89.2948 105.33 88.1887 107.164 88.1887 107.164C88.1887 107.164 85.6079 102.763 86.3453 97.9953C85.9766 97.9952 84.5018 100.563 84.5018 100.563C84.5018 100.563 83.3957 97.6287 83.3957 95.0615C83.3957 92.4943 85.2392 88.4601 84.8705 88.0933C84.5018 87.7266 82.6584 88.4601 81.921 88.0933C81.1836 87.7266 82.6584 81.4918 82.6584 81.4918C82.6584 81.4918 77.128 85.8927 77.8654 93.2276C78.7134 101.663 80.0776 106.064 80.0776 106.064C80.0776 106.064 80.8149 112.298 81.5523 112.665C82.2897 113.032 83.0271 111.565 84.5018 111.565C85.9766 111.565 88.9261 113.399 90.0321 116.699C90.0321 116.699 90.4008 119.266 90.0321 120C88.1887 120 90.0321 120 87.4513 120C86.7139 118.9 87.4513 115.599 83.3957 114.499C81.1836 114.499 80.8149 115.966 79.7089 115.966C78.6028 115.232 76.7594 113.032 75.2846 98.3621C74.1785 98.3619 73.4412 99.829 73.4412 99.829C73.4412 99.829 72.7038 99.0957 72.7038 93.9611C72.7038 88.8266 73.8099 86.2595 73.8099 86.2595C73.0725 85.5259 69.3856 91.0272 69.3856 91.0272C70.123 73.0568 86.3453 63.1546 86.3453 63.1546C86.3453 63.1546 85.6079 71.5898 80.4462 76.3575C82.2897 75.9908 103.305 69.7561 98.512 47.7514C104.411 47.3847 109.941 53.9861 110.31 53.1791Z" fill="black"/>
</svg>
