<svg width="258" height="86" viewBox="0 0 258 86" fill="none" xmlns="http://www.w3.org/2000/svg">
<path d="M189.553 0.474003C189.788 -0.214617 211.788 -2.73987 208.043 17.6912H209.213C209.213 17.6912 211.554 25.7259 201.256 34.4493C200.554 35.3675 201.958 36.5153 201.958 36.5153C201.958 36.5153 199.149 36.0562 199.383 31.6945C199.618 27.3328 204.533 21.8233 203.596 21.1346H201.49C201.49 21.1346 208.511 11.2634 197.277 4.37655C197.277 4.37655 198.68 6.21299 198.915 10.3451C199.331 17.6912 191.426 22.0528 191.426 30.5466C191.425 46.3864 216 39.7291 216 39.7291C216 39.7291 215.768 42.943 201.958 44.5499C198.446 48.9116 199.617 54.1916 196.808 56.7167C195.404 58.3237 194 58.7828 190.723 60.8489C186.978 63.8332 186.744 69.1131 186.744 69.1131C186.744 69.1131 189.319 73.0157 190.723 73.0157C192.127 73.0157 192.361 71.6383 194.936 71.6383C197.51 71.6383 198.446 76 197.744 76C197.042 76 185.106 76 185.106 76C185.106 76 183.936 74.8522 183.936 70.4905C183.936 66.1288 185.106 61.5376 188.617 59.0124C188.617 59.0124 190.957 58.5532 192.829 56.0281C194.234 49.3707 196.106 45.4682 196.106 45.4682C196.106 45.4682 190.957 45.4682 188.617 42.943C186.277 40.4178 185.808 36.5153 185.808 36.5153L188.617 35.8266C188.617 35.8266 175.979 30.5466 188.617 16.7729V19.9868C188.617 19.9868 201.958 11.0338 189.553 0.474003Z" fill="white"/>
<path d="M187 69.7696C187 69.7696 187.232 66.2738 192.578 62.7784C192.578 62.7784 196.065 61.8464 200.714 59.5161C202.573 58.5839 201.178 56.0205 201.411 55.7875C201.643 55.5545 202.108 56.0204 203.735 56.7196C205.915 56.7196 206.059 48.7964 206.059 48.7964C206.059 48.7964 217.681 54.1562 226.049 46C221.579 57.6517 222.562 59.0498 222.562 59.0498C222.562 59.0498 223.724 57.4186 224.189 57.6516C224.654 57.8847 230 74.4302 230 74.4302C230 74.4302 226.049 72.7989 222.562 62.7784C222.562 62.7784 221.168 64.4097 220.703 64.1766C220.238 63.9436 218.378 59.5159 218.843 56.0204C214.659 56.7195 210.476 55.5543 210.476 55.5543C210.476 55.5543 211.173 55.7875 211.173 58.5839C211.173 61.3804 209.314 65.575 209.314 66.7402C209.314 68.3714 211.173 72.5661 212.335 72.5661C213.497 72.5661 213.032 71.6339 214.892 71.6339C216.751 71.6339 217.681 74.6634 217.216 74.8964C216.751 75.1295 211.405 74.8964 209.778 74.8964C208.151 74.8964 204.665 67.4393 204.665 66.7402C204.665 66.0411 203.735 62.5455 202.341 62.3125C197.924 63.4777 189.789 66.0411 188.859 71.6339C187.93 77.2268 188.859 72.7991 188.859 72.7991L187 69.7696Z" fill="white"/>
<path d="M252.863 33.6801C251.159 24.2035 243.523 15.8416 237.685 13.0544C237.919 12.5898 241.888 13.2867 242.122 13.0544C242.122 13.0544 240.254 10.7317 233.716 10.0348C232.782 7.94447 228.112 1.90534 227.645 2.13761C227.178 2.36988 228.112 4.46033 227.878 5.62169C227.645 6.78304 226.244 7.47986 226.244 7.47986C226.244 7.47986 220.873 11.6607 221.574 11.6607C222.274 11.6607 225.076 9.10576 225.076 9.5703C225.076 10.0348 222.274 12.3576 222.741 12.3576C223.208 12.3576 225.076 11.4285 225.076 11.893C225.076 12.3576 213.401 15.8416 215.036 17.4675C215.97 18.3966 216.67 18.8611 217.137 19.0934C217.604 19.3258 219.706 19.2094 220.173 19.0935C220.64 18.9776 226.244 15.8416 228.112 15.3771C229.98 14.9126 234.416 15.3771 234.416 15.8416C234.416 16.3062 228.812 17.7209 229.98 17.9321C232.548 18.3966 236.051 17.6998 240.02 22.8098C240.02 22.8098 241.188 24.9002 241.188 27.6875C240.954 33.262 237.218 36.2815 237.218 36.2815C237.218 36.2815 236.985 36.7461 237.452 31.8684C237.919 26.9907 234.65 25.3648 234.65 25.3648C234.65 25.3648 234.883 26.7584 234.883 27.9198C234.65 37.9074 222.274 37.6752 222.274 37.6752C222.274 37.6752 230.213 32.7975 229.98 27.223C229.98 26.2939 229.046 21.1839 225.543 20.9516C222.975 20.2548 218.772 20.9516 217.371 20.9516C215.97 20.9516 212 17.003 212 15.8416C212 14.6803 219.239 12.8221 219.706 12.3576C220.173 11.893 219.939 10.0348 219.939 9.5703C219.939 9.10576 222.741 7.9444 222.975 7.47986C223.208 7.01531 223.909 1.90534 224.376 1.90534C224.843 1.90534 224.843 4.92487 225.31 6.3185C226.711 6.08623 225.543 0.51171 226.711 0.0471666C227.878 -0.417377 233.249 2.60215 235.817 6.78304C252.863 12.1254 254.497 18.3966 254.497 18.3966C254.497 18.3966 246.792 14.9126 246.558 15.1448C246.325 15.3771 258 20.9517 258 37.6752C258 43.2498 257.066 46.037 257.066 46.037L253.33 40.6947C253.33 40.6947 253.979 43.482 254.03 44.8757C254.264 51.1471 249.36 56.2569 248.893 56.2569C247.726 51.8438 244.924 52.7728 244.924 52.7728C244.924 52.7728 246.325 53.4697 246.325 55.5601C246.325 57.6505 243.523 62.7605 243.756 65.3155C244.16 69.7287 245.157 70.1931 245.624 70.1932C246.091 70.1933 247.025 68.7996 248.893 68.5673C251.228 68.2769 253.797 73.2127 252.863 73.9096C251.695 73.9096 244.223 73.9096 242.822 73.9096C241.421 73.9096 239.553 67.6383 240.02 66.7091C239.553 66.7091 238.853 67.8705 238.853 67.8705C238.853 67.8705 237.218 65.0833 237.685 62.0637C237.452 62.0636 236.518 63.6896 236.518 63.6896C236.518 63.6896 235.817 61.8315 235.817 60.2056C235.817 58.5797 236.985 56.0247 236.751 55.7924C236.518 55.5602 235.35 56.0247 234.883 55.7924C234.416 55.5602 235.35 51.6115 235.35 51.6115C235.35 51.6115 231.848 54.3987 232.315 59.0442C232.852 64.3865 233.716 67.1737 233.716 67.1737C233.716 67.1737 234.183 71.1224 234.65 71.3546C235.117 71.5869 235.584 70.6578 236.518 70.6578C237.452 70.6578 239.32 71.8191 240.02 73.9096C240.02 73.9096 240.254 75.5354 240.02 76C238.853 76 240.02 76 238.386 76C237.919 75.3033 238.386 73.2129 235.817 72.516C234.416 72.5161 234.183 73.4451 233.482 73.445C232.782 72.9805 231.614 71.5869 230.68 62.296C229.98 62.2959 229.513 63.2251 229.513 63.2251C229.513 63.2251 229.046 62.7606 229.046 59.5087C229.046 56.2568 229.746 54.631 229.746 54.631C229.279 54.1664 226.944 57.6505 226.944 57.6505C227.411 46.2693 237.685 39.9979 237.685 39.9979C237.685 39.9979 237.218 45.3402 233.949 48.3597C235.117 48.1275 248.426 44.1789 245.391 30.2426C249.127 30.0103 252.629 34.1912 252.863 33.6801Z" fill="white"/>
<path d="M1.64 8H7.16L11.44 24.76H11.52V8H15.44V36H10.92L5.64 15.56H5.56V36H1.64V8ZM18.7103 8H23.1103V36H18.7103V8ZM32.6456 36.4C30.5123 36.4 28.8856 35.8 27.7656 34.6C26.6456 33.3733 26.0856 31.6267 26.0856 29.36V14.64C26.0856 12.3733 26.6456 10.64 27.7656 9.44C28.8856 8.21333 30.5123 7.6 32.6456 7.6C34.779 7.6 36.4056 8.21333 37.5256 9.44C38.6456 10.64 39.2056 12.3733 39.2056 14.64V17.04H35.0456V14.36C35.0456 12.52 34.2856 11.6 32.7656 11.6C31.2456 11.6 30.4856 12.52 30.4856 14.36V29.68C30.4856 31.4933 31.2456 32.4 32.7656 32.4C34.2856 32.4 35.0456 31.4933 35.0456 29.68V24.2H32.8456V20.2H39.2056V29.36C39.2056 31.6267 38.6456 33.3733 37.5256 34.6C36.4056 35.8 34.779 36.4 32.6456 36.4ZM42.0306 8H46.4306V19.4H51.1506V8H55.5506V36H51.1506V23.4H46.4306V36H42.0306V8ZM62.2675 12H57.6675V8H71.2675V12H66.6675V36H62.2675V12ZM77.2284 12H72.6284V8H86.2284V12H81.6284V36H77.2284V12ZM88.3588 8H94.8788C97.1454 8 98.7988 8.53333 99.8388 9.6C100.879 10.64 101.399 12.2533 101.399 14.44V16.16C101.399 19.0667 100.439 20.9067 98.5188 21.68V21.76C99.5854 22.08 100.332 22.7333 100.759 23.72C101.212 24.7067 101.439 26.0267 101.439 27.68V32.6C101.439 33.4 101.465 34.0533 101.519 34.56C101.572 35.04 101.705 35.52 101.919 36H97.4388C97.2788 35.5467 97.1721 35.12 97.1188 34.72C97.0654 34.32 97.0388 33.6 97.0388 32.56V27.44C97.0388 26.16 96.8254 25.2667 96.3988 24.76C95.9988 24.2533 95.2921 24 94.2788 24H92.7588V36H88.3588V8ZM94.3588 20C95.2388 20 95.8921 19.7733 96.3188 19.32C96.7721 18.8667 96.9987 18.1067 96.9987 17.04V14.88C96.9987 13.8667 96.8121 13.1333 96.4388 12.68C96.0921 12.2267 95.5321 12 94.7588 12H92.7588V20H94.3588ZM107.892 8H113.852L118.412 36H114.012L113.212 30.44V30.52H108.212L107.412 36H103.332L107.892 8ZM112.692 26.72L110.732 12.88H110.652L108.732 26.72H112.692ZM120.546 8H132.186V12H124.946V19.8H130.626V23.8H124.946V36H120.546V8ZM134.296 8H145.936V12H138.696V19.8H144.376V23.8H138.696V36H134.296V8ZM148.046 8H152.446V36H148.046V8ZM161.942 36.4C159.835 36.4 158.222 35.8 157.102 34.6C156.008 33.4 155.462 31.7067 155.462 29.52V14.48C155.462 12.2933 156.008 10.6 157.102 9.4C158.222 8.2 159.835 7.6 161.942 7.6C164.048 7.6 165.648 8.2 166.742 9.4C167.862 10.6 168.422 12.2933 168.422 14.48V17.44H164.262V14.2C164.262 12.4667 163.528 11.6 162.062 11.6C160.595 11.6 159.862 12.4667 159.862 14.2V29.84C159.862 31.5467 160.595 32.4 162.062 32.4C163.528 32.4 164.262 31.5467 164.262 29.84V25.56H168.422V29.52C168.422 31.7067 167.862 33.4 166.742 34.6C165.648 35.8 164.048 36.4 161.942 36.4Z" fill="white"/>
<path d="M116.64 46H122.16L126.44 62.76H126.52V46H130.44V74H125.92L120.64 53.56H120.56V74H116.64V46ZM132.67 46H136.91L138.87 67.52H138.95L141.03 46H145.83L147.91 67.52H147.99L149.95 46H153.75L150.91 74H145.43L143.43 55.12H143.35L141.35 74H135.51L132.67 46ZM161.696 74.4C159.563 74.4 157.949 73.8 156.856 72.6C155.763 71.3733 155.216 69.6267 155.216 67.36V65.76H159.376V67.68C159.376 69.4933 160.136 70.4 161.656 70.4C162.403 70.4 162.963 70.1867 163.336 69.76C163.736 69.3067 163.936 68.5867 163.936 67.6C163.936 66.4267 163.669 65.4 163.136 64.52C162.603 63.6133 161.616 62.5333 160.176 61.28C158.363 59.68 157.096 58.24 156.376 56.96C155.656 55.6533 155.296 54.1867 155.296 52.56C155.296 50.3467 155.856 48.64 156.976 47.44C158.096 46.2133 159.723 45.6 161.856 45.6C163.963 45.6 165.549 46.2133 166.616 47.44C167.709 48.64 168.256 50.3733 168.256 52.64V53.8H164.096V52.36C164.096 51.4 163.909 50.7067 163.536 50.28C163.163 49.8267 162.616 49.6 161.896 49.6C160.429 49.6 159.696 50.4933 159.696 52.28C159.696 53.2933 159.963 54.24 160.496 55.12C161.056 56 162.056 57.0667 163.496 58.32C165.336 59.92 166.603 61.3733 167.296 62.68C167.989 63.9867 168.336 65.52 168.336 67.28C168.336 69.5733 167.763 71.3333 166.616 72.56C165.496 73.7867 163.856 74.4 161.696 74.4Z" fill="white"/>
</svg>
